<?xml version="1.0" encoding="UTF-8"?>
<svg width="800px" height="800px" viewBox="0 0 800 800" version="1.1" xmlns="http://www.w3.org/2000/svg" xmlns:xlink="http://www.w3.org/1999/xlink">
    <!-- Generator: Sketch 54.1 (76490) - https://sketchapp.com -->
    <title>logo</title>
    <desc>Created with Sketch.</desc>
    <g id="Page-1" stroke="none" stroke-width="1" fill="none" fill-rule="evenodd">
        <g id="logo" fill="#DE356A">
            <path d="M400,800 C178.33,800 0,621.67 0,400 C0,178.33 178.33,0 400,0 C621.67,0 800,178.33 800,400 C800,621.67 621.67,800 400,800 Z M400,641.67 L430,611.67 L400,496.67 L370,611.67 L400,641.67 Z M361.67,640 L346.67,696.67 L381.67,661.67 L361.67,640 Z M438.33,640 L418.33,660 L453.33,695 L438.33,640 Z M466.67,743.33 L400,676.67 L333.33,743.33 C355,746.67 376.67,750 400,750 C423.33,750 445,748.33 466.67,743.33 Z M400,50 C206.67,50 50,206.67 50,400 C50,553.33 148.33,683.33 285,730 L360,451.67 C343.33,440 333.33,420 333.33,398.33 C333.33,361.67 363.33,331.67 400,331.67 C436.67,331.67 466.67,361.67 466.67,398.33 C466.67,420 456.67,438.33 440,451.67 L515,730 C651.67,683.33 750,553.33 750,400 C750,206.67 593.33,50 400,50 Z M628.33,573.33 C620,583.33 605,586.67 593.33,578.33 C581.67,570 580,555 588.33,545 C588.33,545 633.33,485 633.33,400 C633.33,315 588.33,255 588.33,255 C580,245 581.67,230 593.33,221.67 C605,213.33 620,216.67 628.33,226.67 C631.67,230 683.33,298.33 683.33,400 C683.33,501.67 631.67,570 628.33,573.33 Z M506.67,508.33 C496.67,498.33 498.33,480 508.33,470 C508.33,470 533.33,443.33 533.33,400 C533.33,356.67 508.33,331.67 508.33,330 C498.33,320 498.33,303.33 506.67,291.67 C516.67,280 531.67,280 541.67,290 C543.33,291.67 583.33,333.33 583.33,400 C583.33,466.67 543.33,508.33 541.67,510 C531.67,520 516.67,518.33 506.67,508.33 Z M293.33,508.33 C283.33,518.33 268.33,520 258.33,510 C256.67,506.67 216.67,466.67 216.67,400 C216.67,333.33 256.67,293.33 258.33,290 C268.33,280 285,280 293.33,291.67 C303.33,301.67 301.67,320 291.67,330 C291.67,331.67 266.67,356.67 266.67,400 C266.67,443.33 291.67,470 291.67,470 C301.67,480 303.33,496.67 293.33,508.33 Z M206.67,578.33 C195,586.67 180,583.33 171.67,573.33 C168.33,570 116.67,501.67 116.67,400 C116.67,298.33 168.33,230 171.67,226.67 C180,216.67 195,213.33 206.67,221.67 C218.33,230 220,245 211.67,255 C211.67,255 166.67,315 166.67,400 C166.67,485 211.67,545 211.67,545 C220,555 216.67,570 206.67,578.33 Z" id="overcastCanvas-bezier"></path>
        </g>
    </g>
</svg>